<svg width="709" height="687" viewBox="0 0 709 687" fill="none" xmlns="http://www.w3.org/2000/svg">
<g clip-path="url(#clip0_1_5)">
<path d="M432.03 657.493L413.777 686.425H450.283L432.03 657.493L413.777 686.425H450.283L432.03 657.493Z" fill="#F2F2F2"/>
<path d="M385.359 267.369V346.734C385.355 348.887 384.419 350.95 382.756 352.472C381.093 353.993 378.839 354.85 376.487 354.854H309.964L310.576 354.137C345.574 332.755 370.375 304.227 384.577 268.278L385.359 267.369Z" fill="#F2F2F2"/>
<path d="M452.769 188.324H75.7731C69.7355 188.33 63.9473 190.528 59.6781 194.435C55.4089 198.342 53.0073 203.639 53 209.164V416.391C53.0073 421.916 55.4089 427.213 59.6781 431.12C63.9473 435.027 69.7355 437.225 75.7731 437.232H452.769C458.806 437.225 464.595 435.027 468.864 431.12C473.133 427.213 475.535 421.916 475.542 416.391V209.164C475.535 203.639 473.133 198.342 468.864 194.435C464.595 190.528 458.806 188.33 452.769 188.324ZM473.535 416.391C473.535 418.887 472.998 421.358 471.955 423.664C470.912 425.97 469.382 428.065 467.454 429.83C465.525 431.594 463.236 432.994 460.716 433.949C458.197 434.904 455.496 435.395 452.769 435.395H75.7731C73.046 435.395 70.3454 434.904 67.8257 433.949C65.3061 432.994 63.0167 431.594 61.0883 429.83C59.1599 428.065 57.6303 425.97 56.5869 423.664C55.5435 421.358 55.0068 418.887 55.0073 416.391V333.149C55.0073 328.3 55.2649 323.508 55.7801 318.775C59.6551 283.511 77.7106 250.822 106.441 227.055C135.172 203.289 172.528 190.139 211.258 190.161H452.769C458.276 190.161 463.558 192.163 467.452 195.727C471.346 199.291 473.534 204.124 473.535 209.164V416.391Z" fill="#E6E6E6"/>
<path d="M332.37 284.957H136.284C134.678 284.957 133.137 285.541 132.001 286.58C130.865 287.62 130.227 289.03 130.227 290.5C130.227 291.97 130.865 293.38 132.001 294.419C133.137 295.459 134.678 296.043 136.284 296.043H332.37C333.976 296.043 335.517 295.459 336.653 294.419C337.788 293.38 338.427 291.97 338.427 290.5C338.427 289.03 337.788 287.62 336.653 286.58C335.517 285.541 333.976 284.957 332.37 284.957Z" fill="#E6E6E6"/>
<path d="M197.076 253.866H136.284C134.676 253.866 133.134 254.451 131.997 255.491C130.861 256.532 130.222 257.943 130.222 259.414C130.222 260.885 130.861 262.296 131.997 263.337C133.134 264.377 134.676 264.962 136.284 264.962H197.076C198.684 264.962 200.226 264.377 201.362 263.337C202.499 262.296 203.138 260.885 203.138 259.414C203.138 257.943 202.499 256.532 201.362 255.491C200.226 254.451 198.684 253.866 197.076 253.866Z" fill="#E6E6E6"/>
<path d="M136.284 284.957H166.344C162.55 288.934 158.43 292.64 154.019 296.043H136.284C134.678 296.043 133.137 295.459 132.001 294.419C130.865 293.38 130.227 291.97 130.227 290.5C130.227 289.03 130.865 287.62 132.001 286.58C133.137 285.541 134.678 284.957 136.284 284.957Z" fill="#6C63FF"/>
<path d="M136.284 253.866H187.019C185.4 257.664 183.533 261.369 181.429 264.962H136.284C134.676 264.962 133.134 264.377 131.997 263.337C130.861 262.296 130.222 260.885 130.222 259.414C130.222 257.943 130.861 256.532 131.997 255.491C133.134 254.451 134.676 253.866 136.284 253.866Z" fill="#6C63FF"/>
<path d="M191.887 191.254C156.778 195.276 124.199 210.079 99.4762 233.243C74.7531 256.407 59.3482 286.561 55.7801 318.775C54.8467 318.61 53.9234 318.417 53 318.215V209.164C53.0073 203.639 55.4089 198.342 59.6781 194.435C63.9473 190.528 69.7355 188.33 75.7731 188.324H191.084C191.375 189.288 191.636 190.271 191.887 191.254Z" fill="#6C63FF"/>
<path d="M190.752 207.427C201.221 207.427 209.708 199.66 209.708 190.079C209.708 180.498 201.221 172.732 190.752 172.732C180.283 172.732 171.795 180.498 171.795 190.079C171.795 199.66 180.283 207.427 190.752 207.427Z" fill="white"/>
<path d="M190.752 208.345C186.804 208.345 182.945 207.274 179.663 205.267C176.38 203.26 173.822 200.407 172.311 197.069C170.8 193.732 170.405 190.059 171.175 186.516C171.945 182.972 173.846 179.718 176.638 177.163C179.429 174.609 182.986 172.869 186.858 172.164C190.73 171.459 194.743 171.821 198.39 173.204C202.037 174.586 205.155 176.927 207.348 179.931C209.541 182.935 210.712 186.467 210.712 190.079C210.706 194.922 208.601 199.565 204.859 202.989C201.117 206.414 196.044 208.34 190.752 208.345ZM190.752 173.65C187.201 173.65 183.73 174.614 180.778 176.419C177.825 178.224 175.524 180.79 174.166 183.792C172.807 186.794 172.451 190.097 173.144 193.284C173.837 196.471 175.547 199.399 178.057 201.696C180.568 203.994 183.767 205.559 187.249 206.193C190.732 206.827 194.342 206.501 197.622 205.258C200.902 204.014 203.706 201.908 205.679 199.207C207.652 196.505 208.705 193.329 208.705 190.079C208.699 185.723 206.806 181.548 203.44 178.468C200.075 175.388 195.512 173.655 190.752 173.65Z" fill="#3F3D56"/>
<path d="M188.166 199.108C187.838 199.108 187.516 199.038 187.223 198.904C186.93 198.77 186.675 198.575 186.479 198.336L181.307 192.025C181.141 191.823 181.02 191.592 180.952 191.346C180.883 191.101 180.868 190.845 180.907 190.595C180.946 190.344 181.039 190.102 181.18 189.884C181.321 189.666 181.508 189.476 181.729 189.324C181.951 189.172 182.203 189.061 182.471 188.998C182.739 188.935 183.019 188.922 183.293 188.957C183.567 188.993 183.83 189.078 184.069 189.207C184.307 189.336 184.515 189.507 184.681 189.71L188.065 193.838L196.755 181.909C197.065 181.484 197.548 181.19 198.096 181.09C198.643 180.99 199.212 181.093 199.677 181.377C200.142 181.66 200.465 182.101 200.575 182.602C200.685 183.104 200.573 183.624 200.264 184.05L189.921 198.248C189.733 198.505 189.482 198.717 189.187 198.867C188.892 199.016 188.562 199.098 188.225 199.107L188.166 199.108Z" fill="#6C63FF"/>
<path d="M340.298 329.585C350.767 329.585 359.254 321.818 359.254 312.237C359.254 302.656 350.767 294.889 340.298 294.889C329.828 294.889 321.341 302.656 321.341 312.237C321.341 321.818 329.828 329.585 340.298 329.585Z" fill="white"/>
<path d="M340.298 330.503C336.35 330.503 332.491 329.432 329.208 327.425C325.926 325.417 323.368 322.565 321.857 319.227C320.346 315.889 319.951 312.217 320.721 308.673C321.491 305.13 323.392 301.875 326.184 299.321C328.975 296.766 332.532 295.027 336.404 294.322C340.275 293.617 344.289 293.979 347.936 295.361C351.583 296.744 354.701 299.085 356.894 302.089C359.087 305.093 360.258 308.624 360.258 312.237C360.252 317.08 358.147 321.723 354.405 325.147C350.663 328.571 345.589 330.497 340.298 330.503ZM340.298 295.808C336.747 295.808 333.276 296.771 330.324 298.577C327.371 300.382 325.07 302.948 323.711 305.95C322.353 308.952 321.997 312.255 322.69 315.442C323.383 318.629 325.092 321.556 327.603 323.854C330.114 326.152 333.313 327.716 336.795 328.35C340.278 328.984 343.887 328.659 347.168 327.415C350.448 326.172 353.252 324.066 355.225 321.364C357.197 318.663 358.25 315.486 358.25 312.237C358.245 307.881 356.352 303.705 352.986 300.625C349.621 297.545 345.057 295.813 340.298 295.808Z" fill="#E6E6E6"/>
<path d="M337.712 321.266C337.384 321.266 337.061 321.196 336.769 321.062C336.476 320.928 336.221 320.733 336.025 320.494L330.853 314.183C330.687 313.98 330.566 313.75 330.497 313.504C330.429 313.259 330.414 313.003 330.453 312.752C330.532 312.246 330.828 311.789 331.275 311.482C331.722 311.175 332.285 311.043 332.838 311.115C333.392 311.188 333.892 311.458 334.227 311.868L337.61 315.996L346.3 304.067C346.611 303.642 347.093 303.347 347.641 303.248C348.189 303.148 348.758 303.251 349.223 303.534C349.688 303.818 350.011 304.259 350.121 304.76C350.231 305.262 350.119 305.782 349.81 306.208L339.466 320.406C339.279 320.663 339.028 320.875 338.732 321.024C338.437 321.174 338.107 321.256 337.77 321.265L337.712 321.266Z" fill="#E6E6E6"/>
<path d="M289.236 130.577C280.866 124.979 270.761 121.974 260.394 122C252.549 122.084 244.846 123.927 237.96 127.368C231.074 130.81 225.216 135.743 220.897 141.738C220.163 142.765 221.77 144.015 222.512 142.977C227.774 135.647 235.382 129.984 244.295 126.763C251.464 124.235 259.211 123.395 266.826 124.32C274.442 125.245 281.681 127.904 287.882 132.055C288.97 132.788 290.331 131.314 289.236 130.577Z" fill="#E6E6E6"/>
<path d="M209.062 135.021L204.361 151.005C204.333 151.151 204.342 151.301 204.387 151.443C204.432 151.586 204.512 151.717 204.621 151.826C204.73 151.936 204.865 152.021 205.016 152.075C205.167 152.13 205.329 152.152 205.49 152.14L225.163 149.257C226.495 149.062 226.321 147.139 224.979 147.336L205.306 150.219L206.435 151.353L211.136 135.369C211.489 134.168 209.413 133.83 209.062 135.021Z" fill="#E6E6E6"/>
<path d="M219.776 348.815C228.145 354.413 238.25 357.418 248.617 357.392C256.462 357.308 264.165 355.465 271.051 352.024C277.937 348.583 283.796 343.649 288.114 337.655C288.849 336.627 287.242 335.377 286.499 336.415C281.238 343.745 273.63 349.408 264.717 352.629C257.548 355.157 249.801 355.997 242.185 355.072C234.57 354.148 227.33 351.488 221.13 347.337C220.041 346.605 218.681 348.078 219.776 348.815Z" fill="#E6E6E6"/>
<path d="M299.949 344.372L304.65 328.387C304.678 328.241 304.67 328.091 304.624 327.949C304.579 327.807 304.499 327.676 304.39 327.566C304.281 327.457 304.146 327.371 303.996 327.317C303.845 327.263 303.683 327.241 303.521 327.253L283.848 330.136C282.517 330.331 282.691 332.254 284.033 332.057L303.706 329.174L302.577 328.039L297.876 344.024C297.523 345.224 299.599 345.562 299.949 344.372Z" fill="#E6E6E6"/>
<path d="M466.891 168.316H391.714C389.298 168.316 386.98 167.437 385.271 165.874C383.563 164.31 382.603 162.189 382.603 159.977C382.603 157.766 383.563 155.645 385.271 154.081C386.98 152.517 389.298 151.639 391.714 151.639H466.891C469.307 151.639 471.625 152.517 473.334 154.081C475.042 155.645 476.002 157.766 476.002 159.977C476.002 162.189 475.042 164.31 473.334 165.874C471.625 167.437 469.307 168.316 466.891 168.316Z" fill="#F2F2F2"/>
<path d="M465.163 159.977L468.75 156.694C468.852 156.602 468.933 156.492 468.989 156.371C469.044 156.249 469.073 156.119 469.073 155.988C469.073 155.857 469.045 155.727 468.991 155.605C468.936 155.484 468.855 155.374 468.754 155.281C468.653 155.188 468.532 155.115 468.399 155.064C468.267 155.014 468.125 154.989 467.981 154.989C467.838 154.989 467.696 155.016 467.563 155.066C467.431 155.117 467.311 155.191 467.21 155.284L463.622 158.567L460.034 155.284C459.933 155.191 459.813 155.117 459.681 155.066C459.549 155.016 459.407 154.989 459.263 154.989C459.12 154.989 458.978 155.014 458.845 155.064C458.712 155.115 458.592 155.188 458.49 155.281C458.389 155.374 458.308 155.484 458.254 155.605C458.199 155.727 458.171 155.857 458.171 155.988C458.172 156.119 458.2 156.249 458.256 156.371C458.311 156.492 458.392 156.602 458.494 156.694L462.082 159.977L458.519 163.237C458.417 163.33 458.336 163.44 458.281 163.561C458.226 163.682 458.197 163.812 458.197 163.943C458.196 164.074 458.224 164.204 458.279 164.326C458.334 164.447 458.414 164.557 458.516 164.65C458.617 164.743 458.738 164.817 458.87 164.867C459.003 164.917 459.145 164.943 459.289 164.942C459.432 164.942 459.574 164.916 459.706 164.865C459.839 164.814 459.959 164.74 460.06 164.647L463.622 161.387L467.184 164.647C467.389 164.833 467.666 164.936 467.954 164.936C468.242 164.935 468.518 164.83 468.722 164.644C468.925 164.457 469.04 164.205 469.041 163.941C469.041 163.678 468.928 163.424 468.725 163.237L465.163 159.977Z" fill="white"/>
<path d="M347.476 420.74C347.342 420.74 347.21 420.716 347.086 420.668C346.963 420.621 346.852 420.551 346.758 420.464L341.031 415.106C340.848 414.935 340.745 414.704 340.745 414.464C340.745 414.224 340.848 413.994 341.031 413.822L346.758 408.465C346.85 408.377 346.96 408.307 347.082 408.259C347.203 408.21 347.334 408.184 347.467 408.182C347.599 408.18 347.731 408.203 347.854 408.247C347.977 408.292 348.09 408.359 348.184 408.444C348.279 408.529 348.355 408.63 348.406 408.742C348.458 408.854 348.485 408.974 348.486 409.095C348.487 409.216 348.462 409.337 348.411 409.449C348.361 409.561 348.287 409.663 348.193 409.749L343.153 414.464L348.193 419.179C348.331 419.309 348.425 419.472 348.462 419.65C348.499 419.828 348.477 420.011 348.401 420.178C348.324 420.344 348.196 420.487 348.031 420.587C347.866 420.687 347.673 420.74 347.476 420.74Z" fill="#3F3D56"/>
<path d="M357.099 420.74C356.902 420.74 356.709 420.687 356.544 420.587C356.379 420.487 356.251 420.344 356.174 420.178C356.098 420.011 356.076 419.828 356.113 419.65C356.15 419.472 356.244 419.309 356.382 419.179L361.422 414.464L356.382 409.749C356.199 409.575 356.098 409.341 356.103 409.099C356.107 408.857 356.215 408.626 356.404 408.457C356.593 408.288 356.848 408.194 357.112 408.195C357.377 408.197 357.63 408.294 357.817 408.465L363.543 413.822C363.727 413.994 363.829 414.224 363.829 414.464C363.829 414.704 363.727 414.935 363.543 415.106L357.817 420.464C357.723 420.551 357.612 420.621 357.489 420.669C357.365 420.716 357.233 420.74 357.099 420.74Z" fill="#3F3D56"/>
<path d="M376.393 324.138C376.929 322.792 377.781 321.57 378.889 320.557C379.997 319.545 381.334 318.767 382.806 318.279C384.278 317.791 385.849 317.604 387.408 317.731C388.968 317.858 390.478 318.297 391.832 319.016L486.509 296.311L488.063 314.161L395.421 333.07C393.95 335.072 391.728 336.51 389.176 337.112C386.623 337.715 383.918 337.439 381.572 336.339C379.227 335.238 377.404 333.388 376.45 331.139C375.495 328.89 375.475 326.4 376.393 324.138Z" fill="#A0616A"/>
<path d="M519.133 292.707C516.88 289.738 513.733 287.432 510.074 286.071C506.415 284.71 502.402 284.352 498.525 285.04L463.711 291.221C463.711 291.221 475.696 327.937 490.873 327.126C497.27 326.784 505.365 323.345 512.591 319.481C515.027 318.188 517.144 316.447 518.809 314.369C520.474 312.29 521.651 309.919 522.266 307.404C522.88 304.889 522.919 302.285 522.38 299.755C521.841 297.226 520.735 294.826 519.133 292.707Z" fill="#3F3D56"/>
<path d="M484.263 667.737L475.038 667.667L470.954 634.345L484.569 634.45L484.263 667.737Z" fill="#A0616A"/>
<path d="M488.429 684.817L486.713 663.848L484.304 663.701L474.478 663.086L471.317 662.893L471.256 668.927L456.523 678.075C455.877 678.477 455.369 679.038 455.058 679.693C454.746 680.349 454.645 681.071 454.765 681.777C454.884 682.483 455.221 683.144 455.734 683.682C456.248 684.22 456.918 684.614 457.667 684.817C458.037 684.921 458.423 684.973 458.811 684.973L477.148 685.111L477.308 684.817L480.359 679.159L481.474 684.817L481.534 685.148L488.459 685.203L488.429 684.817Z" fill="#2F2E41"/>
<path d="M581.388 661.57L572.57 664.05L557.686 633.411L570.7 629.751L581.388 661.57Z" fill="#A0616A"/>
<path d="M582.442 657.189L580.093 657.713L570.529 659.834H570.519L567.447 660.523L569.384 666.3L558.354 679.086C557.879 679.644 557.584 680.313 557.503 681.016C557.421 681.72 557.557 682.431 557.895 683.067C558.232 683.704 558.758 684.242 559.412 684.619C560.066 684.996 560.823 685.199 561.596 685.203C562.004 685.202 562.41 685.146 562.8 685.037L563.583 684.817L580.334 680.105L581.428 673.538L584.53 678.92L591.144 677.056L582.442 657.189Z" fill="#2F2E41"/>
<path d="M465.707 387.553L448.103 434.371L447.522 438.118C443.086 441.972 448.658 443.242 446.569 444.258C444.479 445.275 443.074 448.124 445.89 448.633C448.706 449.142 457.783 631.753 469.758 638.843C481.732 645.934 489.019 651.062 486.82 640.68C485.934 636.497 487.187 614.07 489 588.779C489.205 585.913 492.451 582.879 489.635 580.092C486.82 577.305 489.982 575.471 490.159 573.159C492.685 540.133 495.601 507.528 495.601 507.528C495.601 507.528 514.263 566.179 519.109 561.639C523.955 557.099 522.037 568.277 523.518 571.618C524.756 574.409 519.476 579.892 527.236 579.977C534.996 580.061 553.22 637.071 555.069 637.006C558.732 636.879 569.028 637.24 575.142 636.088C578.162 635.519 564.759 592.357 553.567 555.085C552.675 552.112 547.817 552.043 550.941 546.305C554.065 540.566 538.522 503.435 539.855 501.718C543.396 497.16 544.744 495.179 541.252 494.88C537.761 494.582 536.729 496.334 536.541 491.913C536.352 487.491 535.749 476.588 535.749 476.588C535.749 476.588 533.221 433.466 515.51 409.642L513.999 395.487L465.707 387.553Z" fill="#2F2E41"/>
<path d="M466.51 388.555C451.253 390.583 426.303 402.962 443.65 375.696L461.89 334.064C448.524 324.568 459.754 307.02 470.954 289.482L496.961 265.683H519.554L525.528 286.478C532.913 301.031 533.855 317.636 528.157 332.811C524.44 342.696 533.576 364.151 531.748 365.752C527.733 369.267 520.707 364.986 527.733 371.719C534.759 378.452 536.165 380.606 533.455 383.203C530.744 385.8 524.722 394.066 524.722 394.066L515.51 409.642L466.51 388.555Z" fill="#3F3D56"/>
<path d="M513.674 260.798C526.928 256.082 533.493 242.426 528.339 230.298C523.185 218.169 508.263 212.161 495.01 216.877C481.757 221.594 475.191 235.249 480.345 247.378C485.499 259.506 500.421 265.515 513.674 260.798Z" fill="#A0616A"/>
<path d="M538.985 269.452C542.486 274.037 544.828 279.278 545.841 284.795C543.02 286.447 539.735 287.314 536.386 287.293C536.272 286.891 536.158 286.49 536.029 286.088C535.058 282.98 533.614 280.012 531.739 277.272C531.996 280.227 531.559 283.197 530.456 285.984C528.686 285.248 526.789 284.8 524.851 284.661C523.272 284.661 521.715 284.997 520.302 285.642C518.661 280.662 517.15 276.083 516.078 272.797C516.045 281.033 502.853 288.214 488.459 287.174C487.939 286.876 493.154 273.332 492.651 273.02C491.497 272.321 490.376 271.563 489.255 270.82C493.967 264.159 499.084 257.023 498.207 255.952C498.272 257.275 493.106 263.639 487.485 269.645C484.365 267.549 502.09 233.443 493.333 230.677C493.187 231.882 491.254 231.882 488.898 231.629C488.277 229.642 487.352 227.745 486.152 225.994C486.308 227.758 486.076 229.532 485.47 231.213C483.144 231.213 480.824 231.438 478.549 231.882C478.023 231.124 477.442 230.399 476.811 229.711C476.873 230.549 476.846 231.391 476.73 232.224C474.406 232.685 472.489 233.22 472.213 233.651C470.393 233.041 473.496 230.291 472.359 228.864C469.467 225.295 473.756 220.092 476.47 216.405C482.042 208.852 494.276 206.235 502.935 210.77C503.325 209.536 505.323 208.718 507.89 208.168C508.978 207.949 510.091 207.854 511.204 207.886C522.252 208.064 537.588 216.405 538.189 226.5C538.238 227.511 538.319 228.611 538.4 229.785C539.18 241.085 538.222 251.507 546.654 259.773C549.708 262.761 549.74 276.915 548.571 284.2C545.533 281.271 543.372 269.883 538.985 269.452Z" fill="#2F2E41"/>
<path d="M601.542 671.08C602.009 671.1 602.471 670.988 602.865 670.759C603.26 670.53 603.568 670.196 603.748 669.802C603.928 669.408 603.972 668.972 603.873 668.555C603.773 668.137 603.536 667.757 603.193 667.467L603.037 666.9C603.058 666.854 603.078 666.809 603.099 666.763C603.569 665.747 604.357 664.881 605.363 664.274C606.369 663.666 607.549 663.344 608.754 663.348C609.96 663.352 611.137 663.682 612.138 664.297C613.139 664.911 613.92 665.783 614.382 666.802C616.227 670.869 618.576 674.943 619.155 679.243C619.41 681.144 619.302 683.071 618.837 684.938C623.171 676.286 625.422 666.883 625.436 657.365C625.437 654.976 625.292 652.59 625.002 650.216C624.762 648.271 624.429 646.339 624.004 644.42C621.681 634.013 616.693 624.258 609.45 615.957C605.945 614.207 603.11 611.515 601.328 608.245C600.682 607.07 600.226 605.815 599.973 604.52C600.368 604.567 601.464 599.056 601.166 598.718C601.717 597.952 602.703 597.572 603.305 596.825C606.298 593.112 610.422 593.76 612.575 598.807C617.174 600.931 617.219 604.454 614.397 607.842C612.601 609.997 612.355 612.914 610.779 615.221C610.941 615.411 611.11 615.595 611.272 615.785C614.235 619.271 616.817 623.015 618.981 626.962C618.455 622.54 619.083 618.067 620.814 613.91C622.569 610.037 625.858 606.775 628.754 603.426C629.52 602.526 630.56 601.855 631.743 601.496C632.926 601.138 634.198 601.108 635.4 601.411C636.601 601.714 637.677 602.336 638.492 603.199C639.307 604.062 639.825 605.126 639.979 606.258C639.985 606.307 639.99 606.357 639.996 606.406C639.566 606.628 639.145 606.864 638.733 607.113C638.215 607.43 637.814 607.882 637.582 608.41C637.35 608.939 637.298 609.519 637.433 610.076C637.567 610.632 637.883 611.138 638.337 611.527C638.791 611.917 639.363 612.171 639.978 612.258L640.041 612.267C639.888 613.686 639.617 615.092 639.231 616.473C642.946 629.622 634.925 634.411 623.472 634.626C623.219 634.745 622.973 634.863 622.72 634.976C624.895 640.616 626.259 646.491 626.778 652.453C627.072 655.97 627.055 659.504 626.726 663.018L626.746 662.894C627.576 658.985 629.854 655.459 633.196 652.91C638.16 649.178 645.172 647.804 650.527 644.805C651.097 644.47 651.758 644.292 652.435 644.29C653.111 644.289 653.774 644.464 654.344 644.796C654.915 645.128 655.371 645.602 655.657 646.163C655.943 646.724 656.047 647.348 655.958 647.962L655.937 648.093C655.138 648.39 654.361 648.733 653.609 649.119C653.179 649.341 652.758 649.577 652.346 649.826C651.829 650.142 651.427 650.595 651.196 651.123C650.964 651.652 650.911 652.232 651.046 652.788C651.181 653.345 651.496 653.851 651.95 654.24C652.404 654.63 652.977 654.884 653.592 654.971L653.655 654.98C653.7 654.986 653.739 654.992 653.784 654.998C652.42 657.978 650.506 660.721 648.125 663.107C645.802 674.586 635.824 675.675 625.151 672.332H625.145C623.974 676.989 622.277 681.522 620.082 685.858H601.996C601.931 685.674 601.872 685.484 601.814 685.3C603.488 685.396 605.169 685.305 606.819 685.027C605.477 683.52 604.135 682.002 602.793 680.495C602.763 680.467 602.735 680.437 602.709 680.406C602.028 679.635 601.341 678.87 600.66 678.098L600.66 678.097C600.623 675.733 600.921 673.375 601.542 671.08Z" fill="#F2F2F2"/>
<path d="M399.253 685.907C399.252 686.051 399.283 686.193 399.343 686.326C399.403 686.459 399.491 686.579 399.602 686.681C399.713 686.782 399.845 686.863 399.99 686.918C400.135 686.972 400.29 687 400.447 687H654.665C654.982 687 655.286 686.885 655.51 686.68C655.734 686.475 655.859 686.197 655.859 685.907C655.859 685.617 655.734 685.339 655.51 685.134C655.286 684.929 654.982 684.814 654.665 684.814H400.447C400.29 684.814 400.135 684.842 399.99 684.896C399.845 684.951 399.713 685.032 399.602 685.133C399.491 685.235 399.403 685.355 399.343 685.488C399.283 685.621 399.252 685.763 399.253 685.907Z" fill="#CCCCCC"/>
<path d="M520.441 450.083L467.799 494.783L399.175 475.414L383.195 411.343L435.837 366.643L504.46 386.012L520.441 450.083Z" fill="#F2F2F2"/>
<path d="M432.922 416.907C432.15 415.661 431.687 414.274 431.564 412.846C431.441 411.417 431.662 409.982 432.211 408.64C432.76 407.298 433.624 406.083 434.742 405.08C435.86 404.077 437.205 403.31 438.682 402.834L481.242 322.178L497.091 332.68L452.695 409.454C453.405 411.778 453.159 414.258 452.003 416.426C450.848 418.595 448.863 420.3 446.426 421.218C443.989 422.137 441.268 422.205 438.779 421.411C436.29 420.616 434.206 419.014 432.922 416.907Z" fill="#A0616A"/>
<path d="M499.416 297.124C495.485 296.766 491.526 297.461 488.02 299.126C484.514 300.79 481.612 303.351 479.668 306.498L462.215 334.749C462.215 334.749 500.52 350.23 509.694 339.136C513.561 334.46 515.955 326.592 517.431 319.053C517.936 316.518 517.863 313.915 517.216 311.406C516.568 308.898 515.36 306.54 513.668 304.48C511.976 302.42 509.836 300.703 507.383 299.437C504.93 298.171 502.218 297.383 499.416 297.124Z" fill="#3F3D56"/>
<path d="M390.378 286.657V366.023C390.374 368.175 389.437 370.238 387.774 371.76C386.111 373.281 383.857 374.138 381.505 374.142H314.983L315.595 373.426C350.593 352.043 375.393 323.515 389.595 287.566L390.378 286.657Z" fill="#6C63FF"/>
<path d="M109.854 344.751L91.6009 373.683H128.107L109.854 344.751L91.6009 373.683H128.107L109.854 344.751Z" fill="#F2F2F2"/>
<path d="M248.004 481.053C281.444 481.053 308.553 456.245 308.553 425.644C308.553 395.042 281.444 370.234 248.004 370.234C214.564 370.234 187.456 395.042 187.456 425.644C187.456 456.245 214.564 481.053 248.004 481.053Z" fill="#F2F2F2"/>
</g>
<defs>
<clipPath id="clip0_1_5">
<rect width="603" height="565" fill="white" transform="translate(53 122)"/>
</clipPath>
</defs>
</svg>
